# xmcd
# 
# Track frame offsets:
#     180
#     37905
#     70195
#     99560
# 
# Disc length: 4140
# 
# Revision: 17
# Processed by: cddbd v1.5.2PL0 Copyright (c) Steve Scherf et al.
# Submitted via: BonkEnc v1.0.6
# 
DISCID=2a102a04
DTITLE=Jean Michel Jarre - En attendant Cousteau
DYEAR=1990
DGENRE=Electronic
TTITLE0=Calypso
TTITLE1=Calypso Part 2
TTITLE2=Calypso Part 3 (Fin de siècle)
TTITLE3=En attendant Cousteau
EXTD=
EXTT0=
EXTT1=
EXTT2=
EXTT3=
PLAYORDER=
